<?xml version="1.0"?>
<svg viewBox="0 0 620 200" width="620" height="200" xmlns="http://www.w3.org/2000/svg">
  <defs>
    
  </defs>

  
  
  <line x1="55" y1="30" x2="6" y2="155" stroke="#1B3468" stroke-width="15" stroke-linecap="round"></line>
  <line x1="55" y1="30" x2="104" y2="155" stroke="#1B3468" stroke-width="15" stroke-linecap="round"></line>
  <line x1="25" y1="105" x2="85" y2="105" stroke="#1B3468" stroke-width="15" stroke-linecap="round"></line>
  <circle cx="55" cy="30" r="10.5" fill="#1B3468"></circle>
  <circle cx="6" cy="155" r="10.5" fill="#1B3468"></circle>
  <circle cx="104" cy="155" r="10.5" fill="#1B3468"></circle>
  <circle cx="25" cy="105" r="10.5" fill="#1B3468"></circle>
  <circle cx="85" cy="105" r="10.5" fill="#1B3468"></circle>
  
  <line x1="255" y1="33" x2="155" y2="33" stroke="#1B3468" stroke-width="15" stroke-linecap="round"></line>
  <line x1="155" y1="33" x2="155" y2="93" stroke="#1B3468" stroke-width="15" stroke-linecap="round"></line>
  <line x1="155" y1="93" x2="245" y2="93" stroke="#1B3468" stroke-width="15" stroke-linecap="round"></line>
  <line x1="245" y1="93" x2="245" y2="150" stroke="#1B3468" stroke-width="15" stroke-linecap="round"></line>
  <line x1="245" y1="150" x2="140" y2="150" stroke="#1B3468" stroke-width="15" stroke-linecap="round"></line>
  <circle cx="255" cy="33" r="10.5" fill="#1B3468"></circle>
  <circle cx="155" cy="33" r="10.5" fill="#1B3468"></circle>
  <circle cx="155" cy="93" r="10.5" fill="#1B3468"></circle>
  <circle cx="245" cy="93" r="10.5" fill="#1B3468"></circle>
  <circle cx="245" cy="150" r="10.5" fill="#1B3468"></circle>
  <circle cx="140" cy="150" r="10.5" fill="#1B3468"></circle>
  
  <line x1="295" y1="30" x2="295" y2="155" stroke="#1B3468" stroke-width="15" stroke-linecap="round"></line>
  <line x1="295" y1="155" x2="408" y2="155" stroke="#1B3468" stroke-width="15" stroke-linecap="round"></line>
  <circle cx="295" cy="30" r="10.5" fill="#1B3468"></circle>
  <circle cx="295" cy="155" r="10.5" fill="#1B3468"></circle>
  <circle cx="408" cy="155" r="10.5" fill="#1B3468"></circle>

  
  <line x1="448" y1="60" x2="448" y2="155" stroke="#dde2ee" stroke-width="1"></line>

  
  <text x="470" y="106" font-size="20" font-weight="700" letter-spacing="3.5" fill="#1B3468" text-anchor="start">AUTONOMOUS</text>
  <text x="470" y="132" font-size="20" font-weight="700" letter-spacing="3.5" fill="#1B3468" text-anchor="start">SYSTEMS LAB</text>
  <text x="470" y="154" font-size="11" font-weight="500" letter-spacing="2.8" fill="#8a9ab8" text-anchor="start">IIT MADRAS</text>
</svg>